# xmcd
#
# Track frame offsets: 
#        150
#        18828
#        38629
#        57956
#        78263
#        105532
#        128176
#        148271
#        166605
#        190681
#        210241
#        238555
#
# Disc length: 3428 seconds
#
# Revision: 0
# Processed by: cddbd v1.5.2PL0 Copyright (c) Steve Scherf et al.
# Submitted via: ExactAudioCopy v1.3
#
DISCID=8e0d620c
DTITLE=Black Cat Biscuit - That's How the Cookie Crumbles
DYEAR=2019
DGENRE=Blues
TTITLE0=Train 66
TTITLE1=Haunting Me
TTITLE2=Sons Of A Vampire
TTITLE3=Parrot Woman
TTITLE4=Ain't Got Nobody To Come Home
TTITLE5=What I Really Need Is You
TTITLE6=He's A Fool
TTITLE7=Bad James
TTITLE8=Hey Little Kiddy
TTITLE9=I Don't Know
TTITLE10=So Sad And Lonely
TTITLE11=Goin' Home
EXTD=
EXTT0=
EXTT1=
EXTT2=
EXTT3=
EXTT4=
EXTT5=
EXTT6=
EXTT7=
EXTT8=
EXTT9=
EXTT10=
EXTT11=
PLAYORDER=
